# xmcd
#
# Track frame offsets:
#	150
#	12252
#	26500
#	39520
#	53135
#	64815
#	78112
#	92679
#	107092
#	121625
#	135635
#	149750
#	162992
#	174562
#	189109
#	203659
#	216522
#	231092
#	247800
#	259150
#	274160
#	287145
#	302762
#
# Disc length: 4243 seconds
#
# Revision: 0
# Processed by: cddbd v1.4PL0 Copyright (c) Steve Scherf et al.
# Submitted via: dBpowerAMP V4.0
#
DISCID=41109117
DTITLE=disque1 - DECCA
DYEAR=2001
DGENRE=Chanson
TTITLE0=ça va ça va M.Chevalier
TTITLE1=tout s'arrangera  Zappy Max
TTITLE2=les beaux soirs d'autrefois   les soeurs Etienne
TTITLE3=notre rue  Tohama
TTITLE4=sous les ponts de Paris  Léo Noël
TTITLE5=bal du passé  Suzy Solidor
TTITLE6=cousu de fil blanc  Edith Piaf
TTITLE7=danse avec moi  Suzy Delair
TTITLE8=la tour de monsieur Eiffel  Léo Marjane
TTITLE9=les amoureux sont seuls au monde  Tohama
TTITLE10=Maritchu  André Dassary
TTITLE11=clopin clopant  Jacques Pills
TTITLE12=amour du mois de mai  Edith Piaf
TTITLE13=c'est si bon  les soeurs Etienne
TTITLE14=Folies Bergére M.Chevalier
TTITLE15=le petit rat  Suzy Solidor
TTITLE16=smiple histoire  Tohama
TTITLE17=la caissière du grand café  Fernandel
TTITLE18=la valse brune  Léo Noël
TTITLE19=les vieux bateaux  Edith Piaf
TTITLE20=mon ange  Jacques Pills
TTITLE21=éperdument  André Dassary
TTITLE22=le petit cousin  Tohama
EXTD=
EXTT0=
EXTT1=
EXTT2=
EXTT3=
EXTT4=
EXTT5=
EXTT6=
EXTT7=
EXTT8=
EXTT9=
EXTT10=
EXTT11=
EXTT12=
EXTT13=
EXTT14=
EXTT15=
EXTT16=
EXTT17=
EXTT18=
EXTT19=
EXTT20=
EXTT21=
EXTT22=
PLAYORDER=
